<svg width="177" height="42" viewBox="0 0 177 42" fill="none" xmlns="http://www.w3.org/2000/svg">
<path d="M21.2189 0C4.39535 0 0 4.35 0 21C0 37.65 4.39535 42 21.2189 42C38.0425 42 42.4379 37.65 42.4379 21C42.4379 4.35 38.0425 0 21.2189 0Z" fill="#2074EF"/>
<path d="M26.1026 16.4998H18.3695C17.6184 16.4998 17.0088 17.1031 17.0088 17.8498V25.4998C11.987 25.4998 7.91498 21.4731 7.91498 16.4998C7.91498 11.5264 11.987 7.49976 17.0088 7.49976C22.0306 7.49976 26.1026 11.5298 26.1026 16.4998Z" fill="white"/>
<path d="M33.8496 17.8507V31.8207C33.8496 32.5674 33.2399 33.1674 32.4889 33.1674H18.3699C17.6188 33.1674 17.0092 32.5674 17.0092 31.8207V25.5007C22.031 25.5007 26.103 21.4741 26.103 16.5007H32.4889C33.2399 16.5007 33.8496 17.1041 33.8496 17.8507Z" fill="white"/>
<path d="M121.526 14.63C119.734 13.5967 117.652 13 115.426 13C108.73 13 103.301 18.3733 103.301 25C103.301 31.6267 108.73 37 115.426 37C117.649 37 119.734 36.4033 121.526 35.37C121.701 36.2967 122.523 37 123.509 37H127.551V13H123.509C122.523 13 121.701 13.7033 121.526 14.63ZM115.426 31C112.078 31 109.364 28.3133 109.364 25C109.364 21.6867 112.078 19 115.426 19C118.774 19 121.489 21.6867 121.489 25C121.489 28.3133 118.774 31 115.426 31Z" fill="#15293E"/>
<path d="M66.9625 14.63C65.1707 13.5967 63.0893 13 60.863 13C54.1672 13 48.7379 18.3733 48.7379 25C48.7379 31.6267 54.1672 37 60.863 37C63.0859 37 65.1707 36.4033 66.9625 35.37C67.1377 36.2967 67.9595 37 68.9464 37H72.988V13H68.9464C67.9595 13 67.1377 13.7033 66.9625 14.63ZM60.863 31C57.5151 31 54.8004 28.3133 54.8004 25C54.8004 21.6867 57.5151 19 60.863 19C64.2108 19 66.9255 21.6867 66.9255 25C66.9255 28.3133 64.2108 31 60.863 31Z" fill="#15293E"/>
<path d="M94.207 7V14.61C92.4219 13.59 90.3539 13 88.1444 13C81.4487 13 76.0193 18.3733 76.0193 25C76.0193 31.6267 81.4487 37 88.1444 37C90.3674 37 92.4522 36.4033 94.244 35.37C94.4192 36.2967 95.241 37 96.2278 37H100.27V5H96.2278C95.113 5 94.207 5.89667 94.207 7ZM88.1444 31C84.7966 31 82.0819 28.3133 82.0819 25C82.0819 21.6867 84.7966 19 88.1444 19C91.4923 19 94.207 21.6867 94.207 25C94.207 28.3133 91.4923 31 88.1444 31Z" fill="#15293E"/>
<path d="M172.009 13C171.023 13 170.201 13.7033 170.026 14.63C168.234 13.5967 166.152 13 163.926 13C157.23 13 151.801 18.3733 151.801 25C151.801 31.6267 157.23 37 163.926 37C166.149 37 168.234 36.4033 170.026 35.37C170.201 36.2967 171.023 37 172.009 37H176.051V13H172.009ZM163.926 31C160.578 31 157.863 28.3133 157.863 25C157.863 21.6867 160.578 19 163.926 19C167.274 19 169.989 21.6867 169.989 25C169.989 28.3133 167.274 31 163.926 31Z" fill="#15293E"/>
<path d="M142.707 19C143.826 19 144.876 19.3 145.776 19.8233C146.574 20.2867 147.584 20.17 148.241 19.5233L151.283 16.5133C149.087 14.3433 146.055 13 142.707 13C139.359 13 136.328 14.3433 134.132 16.5133C131.94 18.6867 130.582 21.6867 130.582 25C130.582 28.3133 131.94 31.3133 134.132 33.4867C136.328 35.6567 139.359 37 142.707 37C146.055 37 149.087 35.6567 151.283 33.4867L148.241 30.4767C147.588 29.83 146.574 29.71 145.776 30.1767C144.876 30.7 143.826 31 142.707 31C141.033 31 139.518 30.3267 138.42 29.2433C137.325 28.1567 136.645 26.6567 136.645 25C136.645 23.3433 137.325 21.8433 138.42 20.7567C139.518 19.6733 141.033 19 142.707 19Z" fill="#15293E"/>
</svg>
