<svg width="1197" height="286" viewBox="0 0 1197 286" fill="none" xmlns="http://www.w3.org/2000/svg">
<g clip-path="url(#clip0_2_105)">
<path d="M825.767 92.8218C813.568 85.7853 799.397 81.7223 784.239 81.7223C738.652 81.7223 701.688 118.312 701.688 163.437C701.688 208.561 738.652 245.151 784.239 245.151C799.374 245.151 813.568 241.088 825.767 234.051C826.96 240.361 832.555 245.151 839.274 245.151H866.791V81.7223H839.274C832.555 81.7223 826.96 86.5117 825.767 92.8218ZM784.239 204.294C761.446 204.294 742.963 185.999 742.963 163.437C742.963 140.874 761.446 122.579 784.239 122.579C807.033 122.579 825.515 140.874 825.515 163.437C825.515 185.999 807.033 204.294 784.239 204.294Z" fill="white"/>
<path d="M454.284 92.8211C442.084 85.7846 427.913 81.7216 412.756 81.7216C367.169 81.7216 330.204 118.311 330.204 163.436C330.204 208.56 367.169 245.15 412.756 245.15C427.89 245.15 442.084 241.087 454.284 234.051C455.476 240.361 461.071 245.15 467.79 245.15H495.307V81.7216H467.79C461.071 81.7216 455.476 86.511 454.284 92.8211ZM412.756 204.293C389.962 204.293 371.48 185.998 371.48 163.436C371.48 140.874 389.962 122.579 412.756 122.579C435.549 122.579 454.031 140.874 454.031 163.436C454.031 185.998 435.549 204.293 412.756 204.293Z" fill="white"/>
<path d="M639.773 40.8645V92.685C627.619 85.7392 613.54 81.7216 598.497 81.7216C552.91 81.7216 515.945 118.311 515.945 163.436C515.945 208.56 552.91 245.15 598.497 245.15C613.631 245.15 627.826 241.087 640.025 234.051C641.217 240.361 646.813 245.15 653.531 245.15H681.049V27.2454H653.531C645.941 27.2454 639.773 33.3513 639.773 40.8645ZM598.497 204.293C575.703 204.293 557.221 185.998 557.221 163.436C557.221 140.874 575.703 122.579 598.497 122.579C621.29 122.579 639.773 140.874 639.773 163.436C639.773 185.998 621.29 204.293 598.497 204.293Z" fill="white"/>
<path d="M1169.48 81.7223C1162.76 81.7223 1157.16 86.5117 1155.97 92.8218C1143.77 85.7853 1129.6 81.7223 1114.44 81.7223C1068.86 81.7223 1031.89 118.312 1031.89 163.437C1031.89 208.561 1068.86 245.151 1114.44 245.151C1129.58 245.151 1143.77 241.088 1155.97 234.051C1157.16 240.362 1162.76 245.151 1169.48 245.151H1196.99V81.7223H1169.48ZM1114.44 204.294C1091.65 204.294 1073.17 185.999 1073.17 163.437C1073.17 140.874 1091.65 122.579 1114.44 122.579C1137.24 122.579 1155.72 140.874 1155.72 163.437C1155.72 185.999 1137.24 204.294 1114.44 204.294Z" fill="white"/>
<path d="M969.98 122.579C977.593 122.579 984.747 124.622 990.87 128.185C996.304 131.34 1003.18 130.546 1007.66 126.142L1028.36 105.646C1013.41 90.8691 992.773 81.7216 969.98 81.7216C947.186 81.7216 926.548 90.8691 911.597 105.646C896.669 120.445 887.428 140.874 887.428 163.436C887.428 185.998 896.669 206.427 911.597 221.226C926.548 236.003 947.186 245.15 969.98 245.15C992.773 245.15 1013.41 236.003 1028.36 221.226L1007.66 200.729C1003.21 196.326 996.304 195.509 990.87 198.687C984.747 202.25 977.593 204.293 969.98 204.293C958.583 204.293 948.264 199.708 940.788 192.331C933.336 184.931 928.704 174.717 928.704 163.436C928.704 152.155 933.336 141.941 940.788 134.541C948.264 127.164 958.583 122.579 969.98 122.579Z" fill="white"/>
<path d="M144.466 0C29.925 0 0 29.6214 0 143C0 256.379 29.925 286 144.466 286C259.006 286 288.931 256.379 288.931 143C288.931 29.6214 259.006 0 144.466 0Z" fill="#2074EF"/>
<path d="M177.715 112.355H125.066C119.952 112.355 115.802 116.464 115.802 121.548V173.641C81.6115 173.641 53.8879 146.221 53.8879 112.355C53.8879 78.4891 81.6115 51.0694 115.802 51.0694C149.992 51.0694 177.715 78.5118 177.715 112.355Z" fill="white"/>
<path d="M230.459 121.554V216.683C230.459 221.767 226.309 225.853 221.195 225.853H125.068C119.955 225.853 115.804 221.767 115.804 216.683V173.647C149.994 173.647 177.718 146.227 177.718 112.361H221.195C226.309 112.361 230.459 116.47 230.459 121.554Z" fill="white"/>
</g>
<defs>
<clipPath id="clip0_2_105">
<rect width="1197" height="286" fill="white"/>
</clipPath>
</defs>
</svg>
